<svg id="Layer_1" data-name="Layer 1" xmlns="http://www.w3.org/2000/svg" viewBox="0 0 527.4 208.13"><defs><style>.cls-1{fill:#513f96;}.cls-2{fill:#2c2d2f;}.cls-3{fill:#948bc2;}</style></defs><path class="cls-1" d="M163.2,20.71A149.75,149.75,0,0,0,141.27,23a110.92,110.92,0,0,0-25.56,8.3,128.52,128.52,0,0,0-14.9,8.45A124.81,124.81,0,0,0,83.35,53.52,121,121,0,0,0,72.83,65,88.08,88.08,0,0,0,62.9,79.89,119.93,119.93,0,0,0,56,95,99,99,0,0,0,51.5,112.4a60.76,60.76,0,0,0-.81,13.23,76.84,76.84,0,0,0,2.16,17.5,62.55,62.55,0,0,0,5.81,15.06,49,49,0,0,0,11.78,13.43,89.6,89.6,0,0,0,7.14,5.59,2.56,2.56,0,0,0,2.93.21c4.78-2.33,9.42-4.93,14-7.65q14.2-8.46,28-17.61c.33-.21.6-.65,1-.29.11.09,0,.44,0,.67a88.39,88.39,0,0,0-1.24,16.64,3.39,3.39,0,0,1-2.06,3.51c-7.47,4.18-15,8.25-22.65,12.06-.49.24-1.29.39-1.33.9s.83.72,1.31.93c3.23,1.43,6.73,1.94,10.14,2.64a67,67,0,0,0,14.8,1.67c1.16,0,1.12,1.06,1.14,1.54.12,3.38.08,6.77.1,10.15,0,.92-.55,1-1.28,1.09-1.68.22-23-5.19-31.46-9.47a37.13,37.13,0,0,1-4.25-2.44,3.24,3.24,0,0,0-3.58-.06c-6.29,2.92-12.67,5.66-19.19,8-8.9,3.21-17.88,6.18-27.33,7.46a69.21,69.21,0,0,1-13.24.9,24.83,24.83,0,0,1-16.36-6.86c-2.38-2.3-4.86-4.56-6-7.7-1.55-4.14-1.14-8.48.06-12.58a71.33,71.33,0,0,1,10-20.11,243.26,243.26,0,0,1,16.12-21c4.35-5,9-9.83,13.41-14.79.69-.76.48-7,.31-9.34a70.09,70.09,0,0,1,.63-15.4,93.05,93.05,0,0,1,5-19.41A102.57,102.57,0,0,1,62.68,52.69a107.49,107.49,0,0,1,12.78-13.5,116.39,116.39,0,0,1,19.5-14,125.57,125.57,0,0,1,22-9.61,100.57,100.57,0,0,1,17.83-4.32,130.54,130.54,0,0,1,18-1.4c4.34,0,8.63.78,12.94,1.25,6.16.68,12,2.5,17.87,4.14a50.82,50.82,0,0,1,5,2,4.25,4.25,0,0,0,3.76,0A239,239,0,0,1,216.57,7.11a141.59,141.59,0,0,1,19.05-5.52A54.63,54.63,0,0,1,247.24,0c7.25,0,13.09,3.09,16.74,9.67,2.62,4.74,4.51,9.67,4,15.22a37.7,37.7,0,0,1-2.94,11.56c-4.51,10.63-10.93,20.08-17.94,29.18a56.7,56.7,0,0,1-3.55,4.7,3.19,3.19,0,0,0-.68,3.37,107.39,107.39,0,0,1,2.88,15.86c1.17,10.86-.43,21.34-3.3,31.76-2.81,10.21-7.65,19.4-13.58,28.09a12.46,12.46,0,0,1-.88,1.18c-.44.51-.86.77-1.22-.14-.94-2.36-2-4.67-2.88-7-.37-1,.28-1.93.77-2.78a97.78,97.78,0,0,0,7-14.57,106.74,106.74,0,0,0,5.64-21c1-6.41.85-12.79.83-19.19a47.16,47.16,0,0,0-.94-6.28c-.18-1.23-.86-.91-1.28-.32a62.64,62.64,0,0,1-5.34,5.82,213.36,213.36,0,0,1-17.15,17.14c-.37.32-.72.68-1.07,1-5.64,5.75-11.47,11.31-17.58,16.55-7.43,6.37-14.8,12.82-22.77,18.53-1.46,1.05-2.87,2.17-4.33,3.23-.81.59-1.37.73-2.15,0-.61-.53-1.36-.92-2-1.4a38.53,38.53,0,0,0-12.28-6c-.52-.15-1.32-.42-1.4-.78-.14-.52.58-.94,1-1.27,3.35-2.48,6.81-4.81,10.06-7.4,5.95-4.73,12.05-9.28,18-14.07,3.23-2.6,6.37-5.33,9.75-7.77,3.18-2.29,6.19-4.85,9.12-7.44,5.23-4.63,10.71-9,15.62-14,3.94-4,8-7.91,11.9-11.93,2.18-2.23,4.06-4.75,6.38-6.86a1.11,1.11,0,0,0,.32-1.49A65.41,65.41,0,0,0,218.49,41a59.51,59.51,0,0,0-17.51-12A90,90,0,0,0,183.91,23a75.7,75.7,0,0,0-12.84-1.86C168.45,21.05,165.85,20.49,163.2,20.71Zm-146.67,179c6.78.14,13.13-1.43,19.36-3.25a170.34,170.34,0,0,0,18.19-6.38c5.67-2.38,11.43-4.58,16.81-7.65,1.5-.85,1.35-1.27.41-2.26-2.43-2.56-5-4.93-7.28-7.7A125.05,125.05,0,0,1,49.88,151a70.6,70.6,0,0,1-5.52-14.38c-.66-2.46-1-2.55-2.93-.68-1.29,1.27-2.63,2.51-3.8,3.89-5.43,6.43-11.12,12.65-15.8,19.68-2.3,3.47-4.83,6.81-6.89,10.41a66.09,66.09,0,0,0-5.67,12.21,32.55,32.55,0,0,0-2,12.24c.22,3.53.67,3.94,4.09,5C13.14,199.89,14.92,199.46,16.53,199.69ZM228.26,11.11c-6.7,1.46-13.08,4-19.53,6.3-2.77,1-5.45,2.19-8.16,3.32-.5.21-1.22.31-1.32,1s.59.91,1.1,1.14a41.46,41.46,0,0,1,6.46,4,108.48,108.48,0,0,1,12.64,10.08,96,96,0,0,1,15.89,19.63c.58,1,1.13,1.09,1.89.24,3.92-4.39,7.44-9.1,11-13.8a108.64,108.64,0,0,0,7-11.13,55.35,55.35,0,0,0,6.31-17.68c.15-.79.25-1.76-.66-2.21a28.74,28.74,0,0,0-4.69-2.12C244.66,6.54,233.83,9.89,228.26,11.11Z"/><path class="cls-2" d="M360.75,172.33c0-9.5,0-19,0-28.5,0-1.67.3-2.27,2.1-2.2,3.39.13,3.4,0,3.4,3.35,0,.57,0,1.15,0,1.73,0,.22,0,.58.13.64.43.22.54-.25.7-.47,2.68-3.77,6.67-5.49,10.93-6.08,4.6-.65,9.26-.22,13.44,2.36a20.44,20.44,0,0,1,4.73,31.11,18.28,18.28,0,0,1-11.31,6.07,20.48,20.48,0,0,1-14.09-2.6,21.91,21.91,0,0,1-3.52-3.05c-.23-.21-.52-.59-.71-.55-.58.11-.3.66-.3,1,0,7.35,0,14.7,0,22,0,1,0,2,0,3,0,3.3.39,3-2.83,3-2.63,0-2.63,0-2.63-2.58Zm20.39-26.68a14.47,14.47,0,0,0-15.32,14.84c.12,9.29,6.17,15.1,15.13,15.21,8,.11,14.37-5.12,14.43-15.22C395.43,152.17,389.68,145.34,381.14,145.65Z"/><path class="cls-2" d="M127.21,178.61c0-5.45.06-10.9,0-16.35a22.27,22.27,0,0,1,5.52-15.71,19.72,19.72,0,0,1,22.52-5.4,21.52,21.52,0,0,1,13.08,22c-.81,9.61-7.35,17.94-17.36,19.58a19.43,19.43,0,0,1-16.88-5.27c-.35-.32-.84-.91-1.08-.83-.7.24-.3,1-.31,1.49,0,6.27-.09,12.55,0,18.82,0,1.91-.58,2.58-2.39,2.28h-.25c-2.86,0-2.86,0-2.87-2.75Zm5.46-17.35a15.17,15.17,0,0,0,4.74,11.9c6.64,6.4,15.32,6.1,21.52-.84a16,16,0,0,0,3.38-15.86c-2.62-8.85-11.11-13.42-19.9-10.3C137.62,147.86,132.2,154.15,132.67,161.26Z"/><path class="cls-1" d="M137.24,192.24c-.49-1.31.49-1.47,1.46-1.59a127.23,127.23,0,0,0,15.38-2.83c5.33-1.39,10.84-2.45,15.69-5.12,3.64-2,6.3-.89,8.91,1.45,2.38,2.14,5.26,3.45,7.93,5.12.44.27.93.43,1,1s-.47.77-.93,1c-6.52,2.95-13,6.07-19.77,8.34a100,100,0,0,1-13.08,3.12,125.27,125.27,0,0,1-15.09,1.68c-1.11.08-1.06-.36-1.07-1.05C137.63,201.66,137.24,192.24,137.24,192.24Z"/><path class="cls-2" d="M511.46,162c-4.62,0-9.25,0-13.87,0-1.26,0-1.91-.13-1.56,1.73,1.43,7.7,6.85,11.5,13.58,12.06a11.33,11.33,0,0,0,8.17-2.59c1.15-1,2.73-1.53,3.33-3.15.2-.53.65-.66,1.39-.34,1.26.55,2,1.7,3.09,2.37.85.51-.19,1.37-.58,1.81a18.72,18.72,0,0,1-8.8,5.84A21.61,21.61,0,0,1,503,179.6a18.36,18.36,0,0,1-12.19-12.85c-1.52-5.57-1.36-11.31,1.79-16.53,3.59-6,8.74-9.27,15.86-9.58a17.44,17.44,0,0,1,13.38,4.8c4.42,4.23,5.75,9.66,5.49,15.62-.06,1.26-.88.94-1.54.94C521,162,516.25,162,511.46,162Zm-2.73-4.47c3.72,0,7.43,0,11.15,0,1.15,0,1.66-.24,1.53-1.49a11.35,11.35,0,0,0-4-8c-2.83-2.35-6.18-2.75-9.62-2.44a13.47,13.47,0,0,0-11.6,9.88c-.31,1.22-.14,2.13,1.69,2C501.46,157.41,505.1,157.54,508.73,157.54Z"/><path class="cls-2" d="M172.27,161.34c.2-10.51,6.64-19.18,17-21.43,6-1.32,11.65.52,16.44,4.57a20.88,20.88,0,0,1,7.07,11.23,23.34,23.34,0,0,1,.43,8.74A22.61,22.61,0,0,1,209,174.7a19.06,19.06,0,0,1-16,8.41c-8.09,0-14.92-4.31-18.72-12.25a27.82,27.82,0,0,1-1.77-6.08A21.77,21.77,0,0,1,172.27,161.34ZM190.76,178c7-.17,10.86-2.24,13.76-6.11,4.12-5.49,4.6-11.51,1.95-17.68-2.43-5.64-7-9-13-9.41-5.8-.37-11.28,3.15-14.14,9.19a17.67,17.67,0,0,0-1,12.21C180,172.88,186.62,178.23,190.76,178Z"/><path class="cls-2" d="M304.21,161.29c.43,10.35-7.93,20.57-18.38,21.67-7.86.83-16.18-4-19.36-9.75-2.26-4.09-3.81-8.38-3.35-13,.81-8.19,4.48-14.71,12.09-18.49,12.45-6.18,25.6,2.19,28.53,14.62A16.89,16.89,0,0,1,304.21,161.29Zm-5.39.33c.19-3.59-.32-5.3-2.15-8.65-4.36-8-13.54-11-21.3-5.32a17.08,17.08,0,0,0-1.16,26.6,13.83,13.83,0,0,0,16.09,1.94C296,173,298.66,168,298.82,161.62Z"/><path class="cls-2" d="M440.09,163.61c0,3.39.06,6.77,0,10.16-.05,1.66.72,3.18.56,4.86-.08,1-.34,1.36-1.29,1.23a.65.65,0,0,0-.24,0c-3.95.16-3.95.16-4-3.75a6.09,6.09,0,0,0,0-.74c-.07-.46.25-1.1-.29-1.33-.91-.39-.78.66-1,1-4.65,6.66-15.85,7-21.23,2.92-4-3-4.93-7.11-3.86-11.67,1.11-4.73,4.58-6.91,8.86-8.29,5-1.59,10.09-1.88,15.23-1.91,1.59,0,2-.47,1.84-1.94-.62-4.93-2.31-8.09-8.64-8.52A15.73,15.73,0,0,0,414.63,149c-1.13.9-1.85.4-2.66-.47-2.08-2.23-2-2.73.42-4.43a20,20,0,0,1,11.39-3.42c2.93,0,5.83-.17,8.66,1,5.13,2.19,7.22,6.32,7.6,11.48C440.29,156.67,440.09,160.15,440.09,163.61Zm-5.46-.17c-.05-3.2.44-2.92-2.9-2.91-2.29,0-4.57.36-6.84.59a16.24,16.24,0,0,0-8.36,2.92,6.13,6.13,0,0,0,.45,9.9c3.18,2.1,6.46,2.13,10,1.15C431.7,173.77,434.63,169.26,434.63,163.44Z"/><path class="cls-2" d="M345.88,169.56c.52-3.32-2-4.68-4.56-5.49s-5.42-1.5-8.18-2.12a12.06,12.06,0,0,1-8.07-5.43c-2.47-4.14-.92-10.68,3.45-13.32,5.44-3.29,11.19-3.46,17-1a13.86,13.86,0,0,1,2.5,1.51c1.32.91,1.88,2.4,2.73,3.67-1.47,1-2.91,2.08-4.43,3-.68.4-.92-.48-1.21-.86a9.57,9.57,0,0,0-12.37-2.86c-2.21,1.12-2.87,2.81-2.79,5.17s1.47,3.31,3.14,4a45.47,45.47,0,0,0,8.14,2.27c3.93.74,7.65,2.21,9.51,5.92,2.87,5.75,1.09,13.06-6.76,15.57a20.22,20.22,0,0,1-16.17-1.21c-1.94-1-3.24-2.72-4.73-4.23-.11-.11-.28-.3-.25-.41.43-1.9,2.53-2,3.58-3.22.38-.44,1-.5,1.51.32a11,11,0,0,0,8.27,5,10.4,10.4,0,0,0,7.78-2.11C345.3,172.63,346.34,171.31,345.88,169.56Z"/><path class="cls-2" d="M214.87,140.69c1.91-.61,2.63.74,3.26,2.43,3.05,8,6.15,16,9.24,24,.64,1.67,1.32,3.32,2,5,.11.28,0,.7.5.68s.4-.42.51-.71q4-10.41,7.94-20.8c1.1-2.87,2.38-5.67,3.27-8.62.45-1.53,1.35-2.39,3.08-2a9.1,9.1,0,0,0,1.48,0c1.61,0,2.17.65,1.49,2.05-1.88,3.87-3.14,8-4.74,11.95-2.08,5.18-4.05,10.41-6.05,15.63-1.38,3.63-2.72,7.27-4.11,10.89-.44,1.14-1.44,1.21-2.48,1.12-1.22-.1-2.68.52-3.33-1.21-1-2.5-2-5-2.93-7.49-3.94-10.19-8-20.36-11.75-30.61C211.28,140.51,211.42,140.63,214.87,140.69Z"/><path class="cls-2" d="M470.14,140.68A17.91,17.91,0,0,1,483.82,146c1.08,1,1.11,1.57-.32,2.28-1.08.53-1.91,1.9-3,2.06s-1.49-1.5-2.36-2.23c-5.3-4.41-15.93-3.25-19.65,4.51-2.65,5.54-2.7,11.38.47,16.76a12.42,12.42,0,0,0,9,6.11c4.79.83,8.66-.38,11.81-4,.55-.64.93-.55,1.63-.1,3.69,2.38,3.79,3.4.16,5.85-10.87,7.34-27.26,2.95-30.34-11.56-1.53-7.21-.51-14.37,5.33-19.83A17.73,17.73,0,0,1,470.14,140.68Z"/><path class="cls-3" d="M289.35,107.16c0,2.48,0,5,0,7.43,0,.56.15,1.19-.24,1.67s-.64,1-1.33,1c-.52-.08-.75-.54-1-1a8.24,8.24,0,0,1-.81-3.79c0-2.89-.54-5.7-.65-8.57a57.4,57.4,0,0,0-2.18-14.49,10.52,10.52,0,0,0-7.64-7.24A10.71,10.71,0,0,1,272,80.4c-.27-.2-.49-.49-.33-.83s.43-.21.64-.1c1.54.8,3,1.47,4.77.43a15,15,0,0,0,5.46-5.46,43.83,43.83,0,0,0,6.33-24.12c0-.94-.86-2.59,1-2.76a2.74,2.74,0,0,1,2.8,2.58,17.87,17.87,0,0,1,.3,5.55c-.42,2.33.18,4.88.45,7.31a79.79,79.79,0,0,0,1.66,9.1A11.9,11.9,0,0,0,302.71,81c.37.16.81.18,1.17.35a1.12,1.12,0,0,1,.74,1.39c-.2.63-.8.52-1.25.46-.8-.09-1.59-.37-2.39-.44-5-.45-7.7,2.38-9.72,7-1.54,3.52-1.61,7.31-1.88,11C289.23,102.86,289.35,105,289.35,107.16Zm1.21-38.07c-.32,0-.62.36-1,1.28-1.95,4.37-4.35,8.38-8.8,10.67-1.31.68-.52.94.15,1.4,2.87,2,6,3.7,6.69,7.64a5.09,5.09,0,0,0,.58,1.26,2.72,2.72,0,0,0,.69-1.28,12.71,12.71,0,0,1,7-8.82c.77-.36,1.28-.42.22-1.16a11.77,11.77,0,0,1-2.33-2.49c-1.85-2.27-2.06-5.1-2.9-7.71C290.75,69.61,290.93,69.24,290.56,69.09Z"/><path class="cls-2" d="M256.63,161.51c0,6.36-.07,12.72.05,19.07,0,1.72-.66,1.88-2,1.77s-2.57.35-2.55-1.87q.13-18.94,0-37.9c0-2.14,1.19-1.8,2.52-1.93,1.65-.15,2.05.43,2,2C256.58,149,256.63,155.23,256.63,161.51Z"/><path class="cls-3" d="M89.58,109.77c-.16-1.43.18-2.61-.25-3.72-.21-.55-.56-1.14.23-1.44a1.35,1.35,0,0,1,1.74.54,4.67,4.67,0,0,1,.73,2.31,43.21,43.21,0,0,0,2.51,12.43A6.13,6.13,0,0,0,99.12,124c.42.11,1.16.3,1.12.8-.07.85-.89.49-1.39.52-3.33.22-5,1.51-6,4.74a15.11,15.11,0,0,0-.46,8c.5,2.24-.1,4.6.62,6.85a1.17,1.17,0,0,1-.81,1.58c-.86.16-1-.61-1.19-1.25-.94-2.65-.75-5.49-1.43-8.18-.44-1.74-.77-3.51-1.22-5.24A7.49,7.49,0,0,0,82.45,126a6.75,6.75,0,0,1-1.38-.45c-.23-.11-.68-.11-.59-.52,0-.1.48-.2.68-.13,2.57,1,3.86-.81,4.87-2.53A25.79,25.79,0,0,0,89.58,109.77Zm5.74,14.31c-.13-.17-.2-.36-.34-.42-2.13-1-2.51-3.11-3.32-5-.36-.81-.5-.55-.82,0-1.28,2.26-2.11,4.81-4.55,6.3-.84.51-.17,1.09.51,1.41a7.17,7.17,0,0,1,3.46,3.35,5.2,5.2,0,0,0,.57.76,3.8,3.8,0,0,0,.5-.84,8.14,8.14,0,0,1,3.57-5.07C95.08,124.52,95.18,124.26,95.32,124.08Z"/><path class="cls-3" d="M112,76.23a11.87,11.87,0,0,1,.19-2.7c.15-.4.4-.83-.17-1a1,1,0,0,0-1.26.4,3.41,3.41,0,0,0-.54,1.67,30.91,30.91,0,0,1-1.81,9,4.47,4.47,0,0,1-3.32,3c-.31.08-.85.21-.81.58,0,.61.64.35,1,.38a4.25,4.25,0,0,1,4.37,3.43,11,11,0,0,1,.34,5.79c-.36,1.62.07,3.34-.46,5a.86.86,0,0,0,.59,1.15c.63.11.7-.45.87-.91.68-1.93.54-4,1-5.94.32-1.26.56-2.54.89-3.79A5.42,5.42,0,0,1,117.19,88a5,5,0,0,0,1-.33c.17-.08.49-.08.42-.38,0-.07-.35-.15-.48-.09-1.87.71-2.81-.59-3.54-1.84A18.82,18.82,0,0,1,112,76.23Zm-4.15,10.38c.09-.12.14-.26.24-.31,1.54-.7,1.82-2.26,2.41-3.59.26-.59.36-.4.59,0,.93,1.63,1.53,3.48,3.3,4.56.61.37.12.79-.37,1a5.24,5.24,0,0,0-2.51,2.43,3.22,3.22,0,0,1-.41.56,2.72,2.72,0,0,1-.36-.61A5.89,5.89,0,0,0,108.17,87C108,86.92,108,86.74,107.87,86.61Z"/><path class="cls-3" d="M331,87.62c0-1.31,0-2.38,0-3.45,0-.3-.06-.68.37-.82s.63.13.85.36a4.93,4.93,0,0,1,1.29,3.35,34.37,34.37,0,0,0,1.4,8.15c.85,2.54,2.15,4.59,4.9,5.36.33.09.68.21.71.57.05.55-.44.35-.7.38-4.27.54-6.22,2.71-6.35,7.1a68,68,0,0,0,.46,9.57c.08.68.55,2-.62,2s-1.15-1.32-1.23-2a84.11,84.11,0,0,0-2-10.79c-.66-2.62-1.94-4.45-4.76-4.91a4.93,4.93,0,0,1-1.13-.45c-.35-.15-.89-.3-.68-.76s.55.1.83.11c1.9.13,3-1,3.82-2.52A20.1,20.1,0,0,0,331,87.62Zm5.1,12.62-.56-.41a9,9,0,0,1-2.46-3.6c-.15-.29.12-.91-.51-.84-.32,0-.46.41-.56.74a10,10,0,0,1-3.39,5c-.84.67-1.22,1,.05,1.51a5.59,5.59,0,0,1,3.1,3c.12.24.19.73.55.6s.42-.5.5-.8a8,8,0,0,1,2.83-4.14C335.87,101,336.32,101,336.1,100.24Z"/><path class="cls-2" d="M257.66,130.79c0,2.3-1,3.46-3.12,3.46a3.61,3.61,0,0,1-3.37-3.18,3.12,3.12,0,0,1,3.36-3.27C257,127.79,257.65,128.46,257.66,130.79Z"/><path class="cls-1" d="M139.61,157.57a8.52,8.52,0,0,1,5.66-7.57,7.56,7.56,0,0,1,6.52,1.79c.59.68.16,1.14-.27,1.44-2.33,1.63-9,6.2-10.16,6.71C139.91,160.58,139.61,158.29,139.61,157.57Z"/></svg>